<svg width="29" height="20" viewBox="0 0 29 20" fill="none" xmlns="http://www.w3.org/2000/svg">
<path d="M6.54455 0.736523V1.47275H7.8943H9.24405V2.00447V2.53619L7.50965 2.55244L5.76713 2.5771L5.74247 3.53437L5.71781 4.49976H4.25348H2.78102V6.91296V9.32615H2.12688H1.47246V7.64919V5.97222H0.736229H0V10.0218V14.0713H0.736229H1.47246L1.4887 12.4106L1.51336 10.758L2.15154 10.7333L2.7816 10.7087V13.1303V15.5435H4.45044H6.12741L7.42002 17.3188L8.72075 19.1022L14.8316 19.1269L20.9344 19.1431L21.0652 18.7176C21.1305 18.4803 21.3434 17.7113 21.5398 17.0159L21.8998 15.748H22.3007H22.7016L23.4134 17.5068L24.1169 19.2655H26.2765H28.4281V11.7393V4.21316L26.2931 4.1885L24.1496 4.17226L23.7079 5.25223C23.4624 5.84951 23.1352 6.66755 22.9797 7.06003L22.7016 7.78001L22.3007 7.75535L21.8998 7.7307L21.4989 6.34004C21.2862 5.57104 21.0652 4.81015 21.0162 4.63842L20.9344 4.33557H19.8791H18.8156V3.43574V2.5359H17.0977H15.3799V2.00418V1.47246H16.7296H18.0794V0.736231V1.90735e-06H12.312H6.54455V0.736523ZM17.4087 4.92502L17.4334 5.80861H18.6361H19.8387L20.3214 7.52648L20.8035 9.24435H22.2516H23.7079L24.4278 7.44468L25.1559 5.63659L26.0558 5.66125L26.9556 5.68591L26.9803 11.7562L26.9965 17.8346H26.072H25.1475L24.4194 16.0349L23.6997 14.2346H22.2516H20.812L20.3211 15.9525L19.8384 17.6704L14.6436 17.6541L9.45698 17.6295L8.15625 15.846L6.86364 14.0707H5.55479H4.25406V10.0218V5.97222H5.72652H7.19897V4.99058V4.00894L12.2954 4.02519L17.3838 4.04984L17.4087 4.92502Z" fill="#0169FE"/>
</svg>
