<svg width="21" height="23" viewBox="0 0 21 23" fill="none" xmlns="http://www.w3.org/2000/svg">
<path d="M10.6107 0.0523682C10.5933 0.0872803 9.31219 2.5216 7.76313 5.46827L4.94433 10.8318H6.83706C8.3512 10.8318 8.7239 10.8492 8.70644 10.9075C8.68898 10.9773 3.5177 21.0347 3.08674 21.8381L2.88293 22.2167L3.08674 22.0129C3.19737 21.9023 6.21975 18.612 9.79551 14.7043L16.3005 7.59971L13.8487 7.57069L11.3969 7.54168L13.802 3.931C15.1298 1.9451 16.2594 0.250507 16.3118 0.157333L16.4166 0H13.534C11.7871 0 10.6339 0.0233498 10.6107 0.0523682Z" fill="#0169FE"/>
<path d="M8.51417 1.02489C4.75206 1.70046 1.6891 4.35604 0.506853 7.97238C-0.389978 10.7093 -0.0871049 13.7143 1.33953 16.2184C1.85777 17.1268 2.67321 18.1402 3.38369 18.7634L3.7913 19.1127L4.15811 18.3732L4.5308 17.6394L4.001 17.0744C2.86545 15.8806 2.13752 14.4712 1.78227 12.8116C1.60749 11.9963 1.59593 10.4414 1.75326 9.60872C2.08515 7.90823 2.848 6.41744 4.02435 5.19439C5.18914 3.98901 6.49358 3.20848 8.0542 2.78931L8.52596 2.66689L8.95692 1.84578C9.19564 1.39147 9.39944 1.00132 9.40534 0.977966C9.43435 0.908369 9.03831 0.931719 8.51417 1.02489Z" fill="#0169FE"/>
<path d="M15.1472 3.05729C14.8967 3.42409 14.7104 3.73286 14.7222 3.74442C15.7355 4.39664 16.8652 5.47393 17.4009 6.28937C18.0649 7.29683 18.4958 8.32175 18.7402 9.49221C18.9091 10.29 18.9266 11.8041 18.7751 12.6252C18.1111 16.2241 15.3102 19.0193 11.717 19.66C10.9308 19.7999 9.59147 19.7999 8.80527 19.66C8.28703 19.5668 7.3902 19.3047 6.87763 19.0951C6.69718 19.0252 6.69128 19.0252 6.3476 19.3977C6.15536 19.6015 5.89919 19.881 5.77699 20.0209L5.5614 20.2655L6.05062 20.4986C7.93156 21.3779 10.226 21.6284 12.3575 21.1916C15.0305 20.6325 17.4938 18.9205 18.9556 16.5968C19.2816 16.0786 19.8001 14.9836 19.9921 14.413C20.9939 11.3906 20.557 8.09437 18.7983 5.46214C18.3208 4.75165 17.6861 4.01215 17.127 3.51704C16.7543 3.18515 15.9273 2.56194 15.6945 2.43975C15.6072 2.39351 15.5256 2.48668 15.1472 3.05729Z" fill="#0169FE"/>
</svg>
