<svg width="23" height="23" viewBox="0 0 23 23" fill="none" xmlns="http://www.w3.org/2000/svg">
<path d="M7.59948 9.97113L3.97108 13.5996L4.55903 14.1875L0 18.7465L3.95932 22.7058L8.51836 18.1467L9.10631 18.7347L12.7347 15.1063L7.59948 9.97113ZM3.95937 20.6667L2.03913 18.7465L5.57862 15.207L7.49886 17.1272L3.95937 20.6667ZM6.01021 13.5996L7.59948 12.0103L10.6956 15.1064L9.10627 16.6956L6.01021 13.5996Z" fill="#0169FE"/>
<path d="M22.7058 3.95932L18.7465 0L14.1875 4.55903L13.5995 3.97112L9.97108 7.59953L10.755 8.38345L9.45062 9.68784L13.0179 13.2552L14.3224 11.9508L15.1063 12.7347L18.7346 9.10627L18.1467 8.51831L22.7058 3.95932ZM13.0179 11.2161L11.4897 9.68784L11.7746 9.403L13.3028 10.9312L13.0179 11.2161ZM15.1063 10.6956L12.0102 7.59948L13.5995 6.01021L15.1475 7.55824L16.6956 9.10631L15.1063 10.6956ZM16.1671 6.53874L15.207 5.57862L18.7465 2.03909L20.6667 3.95932L17.1272 7.49881L16.1671 6.53874Z" fill="#0169FE"/>
</svg>
