<svg width="21" height="21" viewBox="0 0 21 21" fill="none" xmlns="http://www.w3.org/2000/svg">
<path d="M3.06123 3.06129C4.01513 2.10739 5.1263 1.35826 6.36398 0.834786C7.64615 0.292532 9.00725 0.0175161 10.4095 0.0175162C11.8118 0.0175163 13.1729 0.292532 14.455 0.834822C15.6927 1.3583 16.8039 2.10743 17.7578 3.06133C18.7117 4.01523 19.4608 5.12644 19.9843 6.36408C20.5266 7.64621 20.8016 9.00731 20.8016 10.4096C20.8016 11.8118 20.5266 13.1729 19.9843 14.4551C19.4608 15.6928 18.7117 16.804 17.7578 17.7579C16.8039 18.7118 15.6927 19.4609 14.455 19.9844C13.1729 20.5267 11.8118 20.8016 10.4095 20.8016C9.00725 20.8016 7.64615 20.5267 6.36398 19.9844C5.1263 19.4609 4.0151 18.7118 3.06123 17.7579C2.10729 16.804 1.3582 15.6928 0.834721 14.4551C0.292434 13.1729 0.0174512 11.8118 0.0174513 10.4096C0.0174515 9.00731 0.292434 7.64621 0.834722 6.36404C1.3582 5.12643 2.10733 4.01519 3.06123 3.06129ZM10.4095 19.3008C15.32 19.3008 19.3007 15.3201 19.3007 10.4096C19.3007 5.49909 15.32 1.51837 10.4095 1.51837C5.49903 1.51837 1.5183 5.49912 1.5183 10.4096C1.5183 15.3201 5.49903 19.3008 10.4095 19.3008Z" fill="#0169FE"/>
<path d="M10.4095 20.8192C11.8142 20.8192 13.1776 20.5437 14.4618 20.0005C15.7016 19.4762 16.8146 18.7258 17.7702 17.7703C18.7257 16.8148 19.4761 15.7017 20.0004 14.4619C20.5437 13.1776 20.8191 11.8142 20.8191 10.4096C20.8191 9.00496 20.5437 7.64155 20.0004 6.35724C19.4761 5.11757 18.7257 4.00448 17.7702 3.04893C16.8147 2.09341 15.7016 1.34306 14.4618 0.818671C13.1775 0.275436 11.8141 -7.87245e-07 10.4095 -9.10034e-07C9.00497 -1.03282e-06 7.64156 0.275435 6.35718 0.81867C5.11744 1.34299 4.00438 2.09334 3.04883 3.04893C2.09328 4.00447 1.34293 5.11757 0.818574 6.35724C0.275375 7.64158 -6.18224e-05 9.00496 -6.19452e-05 10.4096C-6.2068e-05 11.8142 0.275374 13.1776 0.818574 14.4619C1.34292 15.7017 2.09328 16.8147 3.04883 17.7703C4.00434 18.7258 5.11744 19.4762 6.35718 20.0005C7.64142 20.5437 9.0048 20.8192 10.4095 20.8192ZM10.4095 0.035033C11.8094 0.0350331 13.1682 0.309523 14.4482 0.850937C15.6838 1.37354 16.7931 2.12137 17.7454 3.0737C18.6978 4.02606 19.4456 5.13537 19.9682 6.37087C20.5096 7.65087 20.7841 9.00966 20.7841 10.4096C20.7841 11.8095 20.5096 13.1683 19.9682 14.4483C19.4456 15.6839 18.6977 16.7932 17.7454 17.7455C16.7931 18.6978 15.6838 19.4457 14.4482 19.9682C13.1683 20.5096 11.8095 20.7841 10.4095 20.7841C9.00953 20.7841 7.65074 20.5096 6.37081 19.9682C5.13527 19.4457 4.02596 18.6978 3.07363 17.7455C2.12127 16.7932 1.37347 15.6838 0.850909 14.4483C0.309497 13.1683 0.0350064 11.8095 0.0350066 10.4096C0.0350067 9.00969 0.309497 7.65087 0.85091 6.37087C1.37344 5.13537 2.12131 4.02602 3.07363 3.07366C4.026 2.1213 5.13531 1.37347 6.37081 0.850901C7.65088 0.309523 9.0097 0.0350328 10.4095 0.035033ZM10.4095 19.3183C12.7891 19.3183 15.0263 18.3917 16.709 16.709C18.3916 15.0264 19.3182 12.7892 19.3182 10.4096C19.3182 8.02997 18.3916 5.79278 16.709 4.11014C15.0263 2.4275 12.7891 1.50085 10.4095 1.50085C8.02991 1.50085 5.79275 2.42753 4.11008 4.11017C2.42743 5.79281 1.50079 8.02997 1.50079 10.4096C1.50079 12.7892 2.42743 15.0264 4.11008 16.709C5.79272 18.3917 8.02991 19.3183 10.4095 19.3183ZM10.4095 1.53588C12.7798 1.53588 15.0082 2.45892 16.6842 4.13494C18.3602 5.81096 19.2832 8.03936 19.2832 10.4096C19.2832 12.7799 18.3602 15.0083 16.6842 16.6843C15.0082 18.3603 12.7798 19.2833 10.4095 19.2833C8.03923 19.2833 5.81086 18.3603 4.13484 16.6843C2.45882 15.0083 1.53579 12.7799 1.53579 10.4096C1.53579 8.03936 2.45883 5.811 4.13485 4.13498C5.81087 2.45892 8.03926 1.53588 10.4095 1.53588Z" fill="#0169FE"/>
<path d="M9.65913 13.278L9.65913 8.59454C9.65913 8.18009 9.99511 7.84412 10.4096 7.84412C10.824 7.84412 11.16 8.18009 11.16 8.59454L11.16 13.278C12.0866 13.5916 12.7555 14.4695 12.7555 15.5008C12.7555 16.7944 11.7031 17.8467 10.4096 17.8467C9.11604 17.8467 8.06369 16.7944 8.06369 15.5008C8.06365 14.4695 8.73248 13.5916 9.65913 13.278ZM10.4096 16.3458C10.8755 16.3458 11.2546 15.9668 11.2546 15.5008C11.2546 15.0348 10.8755 14.6557 10.4096 14.6557C9.94357 14.6557 9.5645 15.0348 9.5645 15.5008C9.5645 15.9668 9.94357 16.3458 10.4096 16.3458Z" fill="#0169FE"/>
<path d="M10.4095 17.8642C11.7127 17.8642 12.7729 16.8039 12.7729 15.5007C12.7729 14.491 12.1323 13.5942 11.1774 13.2654L11.1774 8.59451C11.1774 8.17106 10.8329 7.82657 10.4095 7.82657C9.98604 7.82657 9.64155 8.17106 9.64155 8.59451L9.64155 13.2654C8.68674 13.5943 8.04607 14.4909 8.04607 15.5008C8.04611 16.8039 9.10634 17.8642 10.4095 17.8642ZM10.4095 7.8616C10.8136 7.8616 11.1424 8.1904 11.1424 8.59451L11.1424 13.2905L11.1543 13.2945C12.1016 13.6151 12.7379 14.5018 12.7379 15.5008C12.7379 16.7846 11.6935 17.8292 10.4096 17.8292C9.12571 17.8292 8.08118 16.7847 8.08118 15.5008C8.08118 14.5018 8.71757 13.6152 9.66474 13.2945L9.67666 13.2905L9.67666 8.59451C9.67662 8.19039 10.0054 7.8616 10.4095 7.8616ZM10.4095 16.3633C10.8851 16.3633 11.2721 15.9764 11.2721 15.5007C11.2721 15.0251 10.8852 14.6382 10.4095 14.6382C9.93387 14.6382 9.54696 15.0251 9.54696 15.5007C9.54696 15.9764 9.93391 16.3633 10.4095 16.3633ZM10.4095 14.6732C10.8658 14.6732 11.2371 15.0445 11.2371 15.5007C11.2371 15.957 10.8658 16.3283 10.4095 16.3283C9.95325 16.3283 9.58199 15.957 9.58199 15.5007C9.58199 15.0445 9.95325 14.6732 10.4095 14.6732Z" fill="#0169FE"/>
<path d="M16.0174 7.7855C15.5875 7.7855 15.2389 7.43694 15.2389 7.00698C15.2389 6.57701 15.5875 6.22845 16.0174 6.22845C16.4474 6.22845 16.796 6.57701 16.796 7.00698C16.796 7.43694 16.4474 7.7855 16.0174 7.7855Z" fill="#0169FE"/>
<path d="M16.0174 7.80305C16.4564 7.80305 16.8135 7.44595 16.8135 7.00701C16.8135 6.56807 16.4564 6.21097 16.0174 6.21097C15.5785 6.21097 15.2214 6.56807 15.2214 7.00701C15.2214 7.44595 15.5785 7.80305 16.0174 7.80305ZM16.0174 6.24604C16.4371 6.24604 16.7784 6.58741 16.7784 7.00704C16.7784 7.42668 16.4371 7.76805 16.0174 7.76805C15.5978 7.76805 15.2564 7.42668 15.2564 7.00704C15.2564 6.58741 15.5978 6.24604 16.0174 6.24604Z" fill="#0169FE"/>
<path d="M4.80156 7.7855C4.37159 7.7855 4.02303 7.43694 4.02303 7.00698C4.02303 6.57701 4.37159 6.22845 4.80156 6.22845C5.23152 6.22845 5.58008 6.57701 5.58008 7.00698C5.58008 7.43694 5.23152 7.7855 4.80156 7.7855Z" fill="#0169FE"/>
<path d="M4.80156 7.80305C5.24046 7.80305 5.5976 7.44595 5.5976 7.00701C5.5976 6.56807 5.2405 6.21097 4.80156 6.21097C4.36262 6.21097 4.00552 6.56807 4.00552 7.00701C4.00552 7.44595 4.36265 7.80305 4.80156 7.80305ZM4.80156 6.24604C5.22119 6.24604 5.56256 6.58741 5.56256 7.00704C5.56256 7.42668 5.22119 7.76805 4.80156 7.76805C4.38192 7.76805 4.04055 7.42668 4.04055 7.00704C4.04055 6.58741 4.38192 6.24604 4.80156 6.24604Z" fill="#0169FE"/>
<path d="M7.25508 5.58841C6.82513 5.58841 6.47659 5.23987 6.47659 4.80992C6.47659 4.37997 6.82513 4.03143 7.25508 4.03143C7.68503 4.03143 8.03357 4.37997 8.03357 4.80992C8.03357 5.23987 7.68503 5.58841 7.25508 5.58841Z" fill="#0169FE"/>
<path d="M7.25505 5.60596C7.69395 5.60596 8.05109 5.24886 8.05109 4.80995C8.05109 4.37105 7.69399 4.01395 7.25505 4.01395C6.81611 4.01395 6.45904 4.37105 6.45904 4.80995C6.45904 5.24886 6.81614 5.60596 7.25505 5.60596ZM7.25505 4.04898C7.67468 4.04898 8.01605 4.39035 8.01605 4.80995C8.01605 5.22955 7.67468 5.57092 7.25505 5.57092C6.83545 5.57092 6.49408 5.22955 6.49408 4.80995C6.49408 4.39035 6.83545 4.04898 7.25505 4.04898Z" fill="#0169FE"/>
<path d="M13.564 5.58841C13.134 5.58841 12.7855 5.23987 12.7855 4.80992C12.7855 4.37997 13.134 4.03143 13.564 4.03143C13.9939 4.03143 14.3425 4.37997 14.3425 4.80992C14.3425 5.23987 13.9939 5.58841 13.564 5.58841Z" fill="#0169FE"/>
<path d="M13.564 5.60596C14.0029 5.60596 14.36 5.24886 14.36 4.80995C14.36 4.37105 14.0029 4.01395 13.564 4.01395C13.125 4.01395 12.768 4.37105 12.768 4.80995C12.768 5.24886 13.1251 5.60596 13.564 5.60596ZM13.564 4.04898C13.9836 4.04898 14.325 4.39035 14.325 4.80995C14.325 5.22955 13.9836 5.57092 13.564 5.57092C13.1444 5.57092 12.803 5.22955 12.803 4.80995C12.803 4.39035 13.1444 4.04898 13.564 4.04898Z" fill="#0169FE"/>
<path d="M10.3932 4.66349C9.96326 4.66349 9.61471 4.31493 9.61471 3.88497C9.61471 3.455 9.96326 3.10645 10.3932 3.10645C10.8232 3.10645 11.1718 3.455 11.1718 3.88497C11.1718 4.31493 10.8232 4.66349 10.3932 4.66349Z" fill="#0169FE"/>
<path d="M10.3932 4.68098C10.8322 4.68098 11.1893 4.32388 11.1893 3.88494C11.1893 3.446 10.8322 3.0889 10.3932 3.0889C9.95429 3.0889 9.59719 3.446 9.59719 3.88494C9.59719 4.32388 9.95429 4.68098 10.3932 4.68098ZM10.3932 3.12393C10.8129 3.12393 11.1542 3.4653 11.1542 3.88494C11.1542 4.30457 10.8129 4.64594 10.3932 4.64594C9.9736 4.64594 9.63222 4.30457 9.63222 3.88494C9.63223 3.4653 9.9736 3.12393 10.3932 3.12393Z" fill="#0169FE"/>
</svg>
