<svg width="21" height="23" viewBox="0 0 21 23" fill="none" xmlns="http://www.w3.org/2000/svg">
<path d="M10.9712 2.59463V1.79114H11.6177C12.1123 1.79114 12.5133 1.39015 12.5133 0.895593C12.5133 0.401032 12.1123 0 11.6177 0H8.53366C8.03905 0 7.63811 0.400988 7.63811 0.895549C7.63811 1.39011 8.0391 1.7911 8.53366 1.7911H9.18015V2.59458C4.04239 3.04932 0 7.37615 0 12.6301C0 18.1858 4.51996 22.7058 10.0757 22.7058C15.6315 22.7058 20.1515 18.1858 20.1515 12.6301C20.1514 7.37615 16.109 3.04932 10.9712 2.59463ZM10.9712 20.8661V19.9737C10.9712 19.4791 10.5703 19.0781 10.0757 19.0781C9.58109 19.0781 9.18015 19.4791 9.18015 19.9737V20.8661C5.32593 20.4499 2.2559 17.3798 1.8397 13.5257H2.73215C3.22675 13.5257 3.6277 13.1247 3.6277 12.6301C3.6277 12.1355 3.22671 11.7346 2.73215 11.7346H1.83966C2.25586 7.88033 5.32597 4.8103 9.18011 4.39406V5.28651C9.18011 5.78111 9.58109 6.18205 10.0757 6.18205C10.5703 6.18205 10.9712 5.78107 10.9712 5.28651V4.39397C14.8254 4.81017 17.8955 7.88029 18.3117 11.7345H17.4192C16.9246 11.7345 16.5237 12.1355 16.5237 12.63C16.5237 13.1246 16.9246 13.5256 17.4192 13.5256H18.3117C17.8955 17.3798 14.8255 20.4499 10.9712 20.8661Z" fill="#0169FE"/>
<path d="M12.792 8.64728L10.2119 11.2274C10.167 11.2231 10.1217 11.2207 10.0757 11.2207C9.29731 11.2207 8.66638 11.8517 8.66638 12.63C8.66638 13.4084 9.29736 14.0393 10.0757 14.0393C10.854 14.0393 11.485 13.4083 11.485 12.63C11.485 12.584 11.4826 12.5387 11.4783 12.4939L14.0583 9.91375C14.4081 9.56407 14.4081 8.997 14.0583 8.64724C13.7088 8.29751 13.1417 8.29751 12.792 8.64728Z" fill="#0169FE"/>
</svg>
